<svg width="10" height="11" viewBox="0 0 10 11" fill="none" xmlns="http://www.w3.org/2000/svg">
<path d="M7.75009 5.04013C7.73317 4.94962 7.68895 4.8649 7.62215 4.79502C7.55535 4.72515 7.46849 4.67275 7.37085 4.64341C6.47632 4.37372 5.52691 4.27932 4.5876 4.36665C3.64874 4.31067 2.70622 4.40439 1.80437 4.64341C1.70248 4.67546 1.61244 4.73183 1.5441 4.80634C1.47575 4.88086 1.43172 4.97067 1.41682 5.06596C1.23818 5.85497 1.17307 6.66101 1.22305 7.46466C1.18422 8.24533 1.23246 9.02752 1.36708 9.79971C1.37809 9.90562 1.42218 10.0067 1.49432 10.0915C1.56647 10.1762 1.66382 10.2414 1.77535 10.2795C2.33489 10.4215 2.91361 10.4948 3.49544 10.4972V9.30797C3.48864 8.95787 3.50318 8.6077 3.53897 8.259C3.54024 8.18506 3.57178 8.11406 3.62768 8.05936C3.68359 8.00466 3.76001 7.97001 3.84257 7.96193C4.08649 7.91507 4.33653 7.89862 4.58553 7.91304C4.83555 7.89964 5.08647 7.91608 5.33159 7.96193C5.41469 7.96883 5.4919 8.00313 5.54807 8.05809C5.60423 8.11305 5.6353 8.1847 5.6352 8.259C5.6352 8.259 5.67769 8.59759 5.67769 9.30059C5.67769 10.0036 5.6466 10.4999 5.6466 10.4999C6.20937 10.4897 6.76946 10.4279 7.318 10.3154C7.43313 10.2863 7.53721 10.2299 7.61914 10.1522C7.70108 10.0746 7.75779 9.97856 7.78325 9.87445C7.96405 9.08289 8.02021 8.27277 7.95009 7.46743C7.97952 6.65432 7.91248 5.84071 7.75009 5.04013Z" fill="#FF7265"/>
<path d="M9.00814 4.80266C9.00814 4.80266 8.51697 4.24449 7.32948 2.9049C6.65356 2.11942 5.92408 1.37164 5.14516 0.665803C5.00212 0.558704 4.82122 0.499985 4.63432 0.499985C4.44742 0.499985 4.26652 0.558704 4.12348 0.665803C3.30397 1.36672 2.53692 2.11469 1.82725 2.9049C0.82731 4.05628 0.114402 4.90783 0.114402 4.90783C0.0550125 4.98069 0.017266 5.06572 0.00467192 5.15504C-0.00792216 5.24436 0.00504603 5.33507 0.0423658 5.41874C0.0796857 5.50241 0.140147 5.57633 0.218139 5.63362C0.296131 5.69091 0.389129 5.72972 0.488479 5.74645C0.611787 5.76582 2.76812 5.95957 4.54314 5.95772C6.31815 5.95588 8.48071 5.76029 8.63407 5.74645C8.74684 5.72899 8.85236 5.6851 8.93978 5.6193C9.02719 5.5535 9.09333 5.46815 9.13142 5.37205C9.16952 5.27594 9.17817 5.17254 9.1565 5.07246C9.13483 4.97239 9.08363 4.87927 9.00814 4.80266Z" fill="#FF7265"/>
</svg>
