<svg width="30" height="34" viewBox="0 0 30 34" fill="none" xmlns="http://www.w3.org/2000/svg">
<path d="M0.813652 7.52736C0.851925 7.07865 1.05436 6.65983 1.38226 6.35112C1.71015 6.04242 2.14042 5.86553 2.59063 5.85436C4.58961 5.84117 6.57101 5.47942 8.44567 4.78536C9.58232 4.27005 10.6516 3.61754 11.6296 2.84237L13.4556 1.43937C13.8226 1.14821 14.2797 0.994357 14.748 1.0044C15.2164 1.01444 15.6665 1.18774 16.0206 1.49436C17.4282 2.74887 19.0079 3.79579 20.7117 4.60337C20.8174 4.65256 20.926 4.69562 21.0367 4.73237C22.8765 5.35824 24.8094 5.6663 26.7526 5.64336C27.2002 5.64805 27.6306 5.81661 27.9623 6.11716C28.294 6.41771 28.504 6.82942 28.5527 7.27437C28.9527 10.5964 29.4656 18.0334 26.9336 23.3154C24.3493 27.791 20.3543 31.2838 15.5737 33.2474C15.3474 33.349 15.1025 33.4026 14.8544 33.4047C14.6064 33.4067 14.3605 33.3573 14.1326 33.2594C9.37074 31.3641 5.37154 27.9437 2.76067 23.5334C0.149674 18.2934 0.488652 10.8614 0.813652 7.52736Z" fill="#D6EA88" stroke="#2D2D2D" stroke-width="0.8" stroke-miterlimit="10"/>
<path d="M12.4604 22.5107C12.1029 22.5114 11.7575 22.3812 11.4894 22.1447C10.7549 21.4943 10.0581 20.8025 9.40245 20.0727C8.75992 19.3525 8.15896 18.5963 7.60246 17.8077C7.37888 17.4895 7.29088 17.0954 7.35783 16.7123C7.42478 16.3292 7.6412 15.9883 7.95946 15.7647C8.27772 15.5412 8.67172 15.4532 9.05485 15.5201C9.43799 15.5871 9.77885 15.8035 10.0024 16.1217C10.491 16.8187 11.0199 17.4865 11.5864 18.1217C11.9011 18.4731 12.2295 18.8164 12.5715 19.1517C13.9505 18.1247 15.3024 17.0377 16.6014 15.9137C18.1804 14.5467 19.7184 13.0987 21.1664 11.6067C21.2997 11.4658 21.4595 11.3528 21.6368 11.2742C21.8141 11.1955 22.0053 11.1529 22.1991 11.1488C22.393 11.1447 22.5858 11.1791 22.7663 11.2501C22.9467 11.3211 23.1113 11.4272 23.2504 11.5624C23.3895 11.6975 23.5004 11.8589 23.5766 12.0372C23.6528 12.2156 23.6928 12.4073 23.6943 12.6012C23.6957 12.7951 23.6587 12.9874 23.5852 13.1669C23.5118 13.3464 23.4035 13.5095 23.2665 13.6467C21.7585 15.1987 20.1595 16.7087 18.5165 18.1297C16.8485 19.5727 15.0975 20.9547 13.3165 22.2387C13.0667 22.4169 12.7672 22.5121 12.4604 22.5107Z" fill="#2D2D2D" stroke="#D6EA88" stroke-width="0.6"/>
</svg>
