<svg width="9" height="9" viewBox="0 0 9 9" fill="none" xmlns="http://www.w3.org/2000/svg">
<path d="M5.0708 0.748779L5.70581 2.70078C5.7369 2.79698 5.79767 2.88083 5.87943 2.94031C5.96118 2.99978 6.0597 3.0318 6.1608 3.03177H8.21381C8.31478 3.03203 8.41309 3.06421 8.49469 3.12369C8.57629 3.18316 8.63699 3.26687 8.66815 3.36292C8.69932 3.45896 8.69935 3.56239 8.66821 3.65845C8.63708 3.7545 8.57639 3.83827 8.49481 3.89777L6.8338 5.10477C6.7522 5.16429 6.69146 5.24806 6.66022 5.34412C6.62898 5.44017 6.62881 5.54363 6.65979 5.63977L7.2948 7.59177C7.32585 7.68792 7.3257 7.79145 7.29437 7.88751C7.26304 7.98358 7.20213 8.06726 7.12036 8.12662C7.03859 8.18598 6.94016 8.21796 6.83911 8.21799C6.73807 8.21801 6.6396 8.18609 6.5578 8.12677L4.89679 6.91977C4.81496 6.86033 4.71643 6.82831 4.6153 6.82831C4.51416 6.82831 4.41563 6.86033 4.3338 6.91977L2.67279 8.12677C2.59099 8.18609 2.49252 8.21801 2.39148 8.21799C2.29044 8.21796 2.192 8.18598 2.11023 8.12662C2.02846 8.06726 1.96755 7.98358 1.93622 7.88751C1.90489 7.79145 1.90474 7.68792 1.93579 7.59177L2.5708 5.63977C2.60178 5.54363 2.60165 5.44017 2.5704 5.34412C2.53916 5.24806 2.4784 5.16429 2.39679 5.10477L0.735809 3.89777C0.65423 3.83827 0.593542 3.7545 0.562409 3.65845C0.531276 3.56239 0.531275 3.45896 0.562439 3.36292C0.593603 3.26687 0.654333 3.18316 0.735932 3.12369C0.81753 3.06421 0.915844 3.03203 1.01682 3.03177H3.06979C3.17089 3.0318 3.26941 2.99978 3.35117 2.94031C3.43292 2.88083 3.49372 2.79698 3.52481 2.70078L4.15979 0.748779C4.19108 0.652617 4.25201 0.568823 4.33383 0.509399C4.41565 0.449976 4.51417 0.417969 4.6153 0.417969C4.71642 0.417969 4.81497 0.449976 4.89679 0.509399C4.97861 0.568823 5.03952 0.652617 5.0708 0.748779Z" fill="#F7BD1B"/>
</svg>
