<svg width="10" height="7" viewBox="0 0 10 7" fill="none" xmlns="http://www.w3.org/2000/svg">
<path d="M2.43484 6.51839C2.51601 6.66008 2.62975 6.77829 2.7656 6.8624C2.90145 6.94651 3.05513 6.99378 3.21285 7C3.52603 6.97653 3.81968 6.83199 4.03671 6.59447L9.19651 1.92995C9.29808 1.83992 9.38137 1.72945 9.44127 1.60504C9.50117 1.48063 9.53651 1.34479 9.54522 1.20578C9.55392 1.06676 9.53581 0.92733 9.49194 0.795799C9.44807 0.664268 9.37931 0.543417 9.28984 0.440277C9.12041 0.272528 8.89608 0.179016 8.66288 0.179016C8.42967 0.179016 8.20534 0.272528 8.03591 0.440277C7.36386 1.03617 3.41051 4.61814 3.41051 4.61814L2.20716 2.82709C2.14826 2.70449 2.06524 2.59636 1.96346 2.50986C1.86168 2.42336 1.7435 2.36044 1.61678 2.32528C1.49005 2.29011 1.35765 2.28351 1.2283 2.30588C1.09896 2.32825 0.975558 2.37914 0.866372 2.4551C0.757185 2.53106 0.664665 2.6304 0.594874 2.74657C0.525083 2.86274 0.479688 2.99305 0.461586 3.12897C0.443485 3.26488 0.453089 3.40328 0.489865 3.535C0.526642 3.66672 0.589709 3.78883 0.674885 3.89315L2.43484 6.51839Z" fill="white"/>
</svg>
