<svg width="24" height="24" viewBox="0 0 24 24" fill="none" xmlns="http://www.w3.org/2000/svg">
<path d="M11.5772 20.7886C8.92574 20.7772 6.26288 20.6172 3.64574 20.3429C2.53717 20.3429 1.5886 19.3943 1.5886 18.2286C1.31431 16.1029 1.15431 13.8743 1.14288 11.6801C1.16574 9.34862 1.31431 6.99434 1.5886 4.68577C1.5886 3.58862 2.53717 2.64005 3.70288 2.62862C3.69146 2.62862 7.76003 2.28577 11.76 2.28577C15.76 2.28577 19.8172 2.62862 19.8629 2.64005C20.9829 2.64005 21.9315 3.58862 21.9315 4.75434C21.9315 4.75434 22.3315 8.33148 22.3315 11.6686C22.32 13.8629 22.1829 16.0801 21.9315 18.2515C21.9086 19.4058 20.9715 20.3315 19.8172 20.3315C19.8286 20.3429 15.5886 20.7886 11.5772 20.7886ZM11.76 3.42862C7.80574 3.42862 3.79431 3.77148 3.7486 3.77148C3.16574 3.77148 2.72003 4.2172 2.72003 4.75434C2.45717 7.0972 2.3086 9.40577 2.28574 11.6801C2.29717 13.8286 2.44574 16.0001 2.73145 18.1486C2.73145 18.7658 3.17717 19.2001 3.71431 19.2001C6.35431 19.4858 8.98288 19.6343 11.5886 19.6458C15.5315 19.6458 19.7143 19.2115 19.7486 19.2001C20.3429 19.2001 20.7886 18.7543 20.7886 18.2172V18.1486C21.04 16.0115 21.1772 13.8286 21.1886 11.6686C21.1886 8.37719 20.8 4.8572 20.7886 4.81148C20.7886 4.20577 20.3429 3.77148 19.8057 3.77148C19.7257 3.77148 15.7143 3.42862 11.76 3.42862Z" fill="#2E3742"/>
<path d="M21.8285 6.89149C20.3657 6.85721 19.1314 6.80006 17.92 6.74292C16.0228 6.66292 14.2285 6.58292 11.7371 6.58292C7.70282 6.58292 1.77139 6.88006 1.71425 6.89149L1.6571 5.74863C1.71425 5.74863 7.67996 5.44006 11.7485 5.44006C14.2628 5.44006 16.0685 5.52006 17.9771 5.60006C19.1771 5.65721 20.4114 5.70292 21.8628 5.73721L21.8285 6.89149Z" fill="#2E3742"/>
<path d="M9.30304 16.4914L8.96019 16.1714L8.14876 15.4286L7.1659 14.5143L6.32019 13.7143C6.18305 13.5886 6.0459 13.4629 5.90876 13.3372L6.0459 13.6686V13.3943L5.57733 13.8629H6.11447C6.29733 13.8629 6.49162 13.8743 6.67447 13.8629C7.12019 13.84 7.53162 13.7143 7.89733 13.4743C8.25162 13.2457 8.53733 12.9257 8.74305 12.56C9.15447 11.7829 9.12019 10.8457 8.64019 10.1029C8.19447 9.40572 7.41733 8.97144 6.58305 8.97144H5.34876C5.22305 8.97144 5.10876 9.01715 5.01733 9.10858C4.83447 9.29144 4.83447 9.58858 5.01733 9.76001C5.10876 9.84001 5.22305 9.89715 5.34876 9.89715H6.5259C6.64019 9.89715 6.74305 9.89715 6.85733 9.92001L6.73162 9.90858C6.90304 9.93144 7.07447 9.97715 7.23447 10.0457L7.12019 10C7.28019 10.0686 7.42876 10.1486 7.5659 10.2629L7.47447 10.1829C7.60019 10.2857 7.7259 10.4114 7.82876 10.5371L7.74876 10.4457C7.85162 10.5829 7.94305 10.7314 8.01162 10.8914L7.9659 10.7772C8.03447 10.9372 8.08019 11.1086 8.10305 11.28C8.10305 11.2343 8.09162 11.2 8.08019 11.1543C8.10305 11.3257 8.10305 11.4972 8.08019 11.6686C8.09162 11.6229 8.09162 11.5886 8.10305 11.5429C8.08019 11.7143 8.03447 11.8857 7.9659 12.0457L8.01162 11.9314C7.94305 12.1029 7.86305 12.2514 7.74876 12.3886L7.81733 12.2972C7.7259 12.4229 7.60019 12.5486 7.47447 12.6514L7.5659 12.5714C7.42876 12.6743 7.28019 12.7657 7.12019 12.8343L7.23447 12.7886C7.07447 12.8572 6.90304 12.9029 6.73162 12.9257L6.85733 12.9029C6.6859 12.9257 6.5259 12.9257 6.35447 12.9257H5.58876C5.33733 12.9257 5.13162 13.1314 5.12019 13.3943C5.12019 13.4857 5.12019 13.5657 5.12019 13.6572C5.12019 13.7943 5.17733 13.92 5.28019 14.0114L5.46305 14.1714L6.24019 14.8914L7.26876 15.8514L8.19447 16.72C8.34305 16.8572 8.50305 17.0057 8.65162 17.1543H8.66304C8.75447 17.2343 8.86876 17.2914 8.99447 17.2914C9.12019 17.2914 9.23447 17.2457 9.3259 17.1543C9.41733 17.0629 9.46305 16.9486 9.46305 16.8229C9.46305 16.6972 9.41733 16.5829 9.3259 16.4914H9.30304Z" fill="#2E3742"/>
<path d="M5.34876 9.90862H9.66876C9.86305 9.90862 10.0688 9.90862 10.263 9.90862H10.2745C10.4002 9.90862 10.5145 9.86291 10.6059 9.77148C10.7888 9.58862 10.7888 9.29148 10.6059 9.12005C10.5145 9.02862 10.3888 8.98291 10.2745 8.98291H5.95447C5.76019 8.98291 5.55447 8.98291 5.36019 8.98291H5.34876C5.22305 8.98291 5.10876 9.02862 5.01733 9.12005C4.83447 9.30291 4.83447 9.60005 5.01733 9.77148C5.10876 9.85148 5.22305 9.90862 5.34876 9.90862Z" fill="#2E3742"/>
<path d="M5.34876 11.8857H9.66876C9.86305 11.8857 10.0688 11.8857 10.263 11.8857H10.2745C10.4002 11.8857 10.5145 11.84 10.6059 11.7486C10.7888 11.5658 10.7888 11.2686 10.6059 11.0972C10.5145 11.0058 10.3888 10.96 10.2745 10.9486H5.95447C5.76019 10.9486 5.55447 10.9486 5.36019 10.9486H5.34876C5.22305 10.9486 5.10876 10.9943 5.01733 11.0858C4.83447 11.2686 4.83447 11.5658 5.01733 11.7372C5.10876 11.8286 5.22305 11.8857 5.34876 11.8857Z" fill="#2E3742"/>
<path d="M18.5459 10.3989H21.2096C22.1863 10.3989 22.9854 11.0592 22.9854 11.8662C22.9854 12.6732 22.1863 13.3335 21.2096 13.3335H18.5459C17.5692 13.3335 16.7701 12.6732 16.7701 11.8662C16.7701 11.0519 17.5692 10.3989 18.5459 10.3989Z" fill="white"/>
<path d="M18.1713 10.6287C17.5428 10.6287 17.0285 11.143 17.0285 11.7716C17.0285 12.4001 17.5428 12.9144 18.1713 12.9144H21.5999C22.2285 12.9144 22.7428 12.4001 22.7428 11.7716C22.7428 11.143 22.2285 10.6287 21.5999 10.6287H18.1713ZM18.1713 9.48584H21.5999C22.857 9.48584 23.8856 10.5144 23.8856 11.7716C23.8856 13.0287 22.857 14.0573 21.5999 14.0573H18.1713C16.9142 14.0573 15.8856 13.0287 15.8856 11.7716C15.8856 10.503 16.9142 9.48584 18.1713 9.48584Z" fill="#2E3742"/>
</svg>
